<?xml version="1.0" encoding="utf-8" standalone="no"?>
<!DOCTYPE svg PUBLIC "-//W3C//DTD SVG 1.1//EN"
  "http://www.w3.org/Graphics/SVG/1.1/DTD/svg11.dtd">
<!-- Created with matplotlib (http://matplotlib.org/) -->
<svg height="432pt" version="1.1" viewBox="0 0 576 432" width="576pt" xmlns="http://www.w3.org/2000/svg" xmlns:xlink="http://www.w3.org/1999/xlink">
 <defs>
  <style type="text/css">
*{stroke-linecap:butt;stroke-linejoin:round;stroke-miterlimit:100000;}
  </style>
 </defs>
 <g id="figure_1">
  <g id="patch_1">
   <path d="M 0 432 
L 576 432 
L 576 0 
L 0 0 
z
" style="fill:#ffffff;"/>
  </g>
  <g id="axes_1">
   <g id="LineCollection_1">
    <path clip-path="url(#p23f8ad243b)" d="M 444 216 
L 400.417489 134.541299 
" style="fill:none;stroke:#ff0000;stroke-width:0.15;"/>
    <path clip-path="url(#p23f8ad243b)" d="M 444 216 
L 400.417489 134.541299 
" style="fill:none;stroke:#ff0000;stroke-width:0.15;"/>
    <path clip-path="url(#p23f8ad243b)" d="M 444 216 
L 295.2 100.8 
" style="fill:none;stroke:#ff0000;stroke-width:0.15;"/>
    <path clip-path="url(#p23f8ad243b)" d="M 444 216 
L 295.2 100.8 
" style="fill:none;stroke:#ff0000;stroke-width:0.15;"/>
    <path clip-path="url(#p23f8ad243b)" d="M 444 216 
L 189.982511 134.541299 
" style="fill:none;stroke:#ff0000;stroke-width:0.15;"/>
    <path clip-path="url(#p23f8ad243b)" d="M 444 216 
L 189.982511 134.541299 
" style="fill:none;stroke:#ff0000;stroke-width:0.15;"/>
    <path clip-path="url(#p23f8ad243b)" d="M 444 216 
L 146.4 216 
" style="fill:none;stroke:#ff0000;stroke-width:0.15;"/>
    <path clip-path="url(#p23f8ad243b)" d="M 444 216 
L 146.4 216 
" style="fill:none;stroke:#ff0000;stroke-width:0.15;"/>
    <path clip-path="url(#p23f8ad243b)" d="M 444 216 
L 189.982511 297.458701 
" style="fill:none;stroke:#ff0000;stroke-width:0.15;"/>
    <path clip-path="url(#p23f8ad243b)" d="M 444 216 
L 189.982511 297.458701 
" style="fill:none;stroke:#ff0000;stroke-width:0.15;"/>
    <path clip-path="url(#p23f8ad243b)" d="M 444 216 
L 295.2 331.2 
" style="fill:none;stroke:#ff0000;stroke-width:0.15;"/>
    <path clip-path="url(#p23f8ad243b)" d="M 444 216 
L 295.2 331.2 
" style="fill:none;stroke:#ff0000;stroke-width:0.15;"/>
    <path clip-path="url(#p23f8ad243b)" d="M 444 216 
L 400.417489 297.458701 
" style="fill:none;stroke:#ff0000;stroke-width:0.15;"/>
    <path clip-path="url(#p23f8ad243b)" d="M 444 216 
L 400.417489 297.458701 
" style="fill:none;stroke:#ff0000;stroke-width:0.15;"/>
    <path clip-path="url(#p23f8ad243b)" d="M 400.417489 134.541299 
L 295.2 100.8 
" style="fill:none;stroke:#ff0000;stroke-width:0.15;"/>
    <path clip-path="url(#p23f8ad243b)" d="M 400.417489 134.541299 
L 295.2 100.8 
" style="fill:none;stroke:#ff0000;stroke-width:0.15;"/>
    <path clip-path="url(#p23f8ad243b)" d="M 400.417489 134.541299 
L 189.982511 134.541299 
" style="fill:none;stroke:#ff0000;stroke-width:0.15;"/>
    <path clip-path="url(#p23f8ad243b)" d="M 400.417489 134.541299 
L 189.982511 134.541299 
" style="fill:none;stroke:#ff0000;stroke-width:0.15;"/>
    <path clip-path="url(#p23f8ad243b)" d="M 400.417489 134.541299 
L 146.4 216 
" style="fill:none;stroke:#ff0000;stroke-width:0.15;"/>
    <path clip-path="url(#p23f8ad243b)" d="M 400.417489 134.541299 
L 146.4 216 
" style="fill:none;stroke:#ff0000;stroke-width:0.15;"/>
    <path clip-path="url(#p23f8ad243b)" d="M 400.417489 134.541299 
L 189.982511 297.458701 
" style="fill:none;stroke:#ff0000;stroke-width:0.15;"/>
    <path clip-path="url(#p23f8ad243b)" d="M 400.417489 134.541299 
L 189.982511 297.458701 
" style="fill:none;stroke:#ff0000;stroke-width:0.15;"/>
    <path clip-path="url(#p23f8ad243b)" d="M 400.417489 134.541299 
L 295.2 331.2 
" style="fill:none;stroke:#ff0000;stroke-width:0.15;"/>
    <path clip-path="url(#p23f8ad243b)" d="M 400.417489 134.541299 
L 295.2 331.2 
" style="fill:none;stroke:#ff0000;stroke-width:0.15;"/>
    <path clip-path="url(#p23f8ad243b)" d="M 400.417489 134.541299 
L 400.417489 297.458701 
" style="fill:none;stroke:#ff0000;stroke-width:0.15;"/>
    <path clip-path="url(#p23f8ad243b)" d="M 400.417489 134.541299 
L 400.417489 297.458701 
" style="fill:none;stroke:#ff0000;stroke-width:0.15;"/>
    <path clip-path="url(#p23f8ad243b)" d="M 295.2 100.8 
L 189.982511 134.541299 
" style="fill:none;stroke:#ff0000;stroke-width:0.15;"/>
    <path clip-path="url(#p23f8ad243b)" d="M 295.2 100.8 
L 189.982511 134.541299 
" style="fill:none;stroke:#ff0000;stroke-width:0.15;"/>
    <path clip-path="url(#p23f8ad243b)" d="M 295.2 100.8 
L 146.4 216 
" style="fill:none;stroke:#ff0000;stroke-width:0.15;"/>
    <path clip-path="url(#p23f8ad243b)" d="M 295.2 100.8 
L 146.4 216 
" style="fill:none;stroke:#ff0000;stroke-width:0.15;"/>
    <path clip-path="url(#p23f8ad243b)" d="M 295.2 100.8 
L 189.982511 297.458701 
" style="fill:none;stroke:#ff0000;stroke-width:0.15;"/>
    <path clip-path="url(#p23f8ad243b)" d="M 295.2 100.8 
L 189.982511 297.458701 
" style="fill:none;stroke:#ff0000;stroke-width:0.15;"/>
    <path clip-path="url(#p23f8ad243b)" d="M 295.2 100.8 
L 295.2 331.2 
" style="fill:none;stroke:#ff0000;stroke-width:0.15;"/>
    <path clip-path="url(#p23f8ad243b)" d="M 295.2 100.8 
L 295.2 331.2 
" style="fill:none;stroke:#ff0000;stroke-width:0.15;"/>
    <path clip-path="url(#p23f8ad243b)" d="M 295.2 100.8 
L 400.417489 297.458701 
" style="fill:none;stroke:#ff0000;stroke-width:0.15;"/>
    <path clip-path="url(#p23f8ad243b)" d="M 295.2 100.8 
L 400.417489 297.458701 
" style="fill:none;stroke:#ff0000;stroke-width:0.15;"/>
    <path clip-path="url(#p23f8ad243b)" d="M 189.982511 134.541299 
L 146.4 216 
" style="fill:none;stroke:#ff0000;stroke-width:0.15;"/>
    <path clip-path="url(#p23f8ad243b)" d="M 189.982511 134.541299 
L 146.4 216 
" style="fill:none;stroke:#ff0000;stroke-width:0.15;"/>
    <path clip-path="url(#p23f8ad243b)" d="M 189.982511 134.541299 
L 189.982511 297.458701 
" style="fill:none;stroke:#ff0000;stroke-width:0.15;"/>
    <path clip-path="url(#p23f8ad243b)" d="M 189.982511 134.541299 
L 189.982511 297.458701 
" style="fill:none;stroke:#ff0000;stroke-width:0.15;"/>
    <path clip-path="url(#p23f8ad243b)" d="M 189.982511 134.541299 
L 295.2 331.2 
" style="fill:none;stroke:#ff0000;stroke-width:0.15;"/>
    <path clip-path="url(#p23f8ad243b)" d="M 189.982511 134.541299 
L 295.2 331.2 
" style="fill:none;stroke:#ff0000;stroke-width:0.15;"/>
    <path clip-path="url(#p23f8ad243b)" d="M 189.982511 134.541299 
L 400.417489 297.458701 
" style="fill:none;stroke:#ff0000;stroke-width:0.15;"/>
    <path clip-path="url(#p23f8ad243b)" d="M 189.982511 134.541299 
L 400.417489 297.458701 
" style="fill:none;stroke:#ff0000;stroke-width:0.15;"/>
    <path clip-path="url(#p23f8ad243b)" d="M 146.4 216 
L 189.982511 297.458701 
" style="fill:none;stroke:#ff0000;stroke-width:0.15;"/>
    <path clip-path="url(#p23f8ad243b)" d="M 146.4 216 
L 189.982511 297.458701 
" style="fill:none;stroke:#ff0000;stroke-width:0.15;"/>
    <path clip-path="url(#p23f8ad243b)" d="M 146.4 216 
L 295.2 331.2 
" style="fill:none;stroke:#ff0000;stroke-width:0.15;"/>
    <path clip-path="url(#p23f8ad243b)" d="M 146.4 216 
L 295.2 331.2 
" style="fill:none;stroke:#ff0000;stroke-width:0.15;"/>
    <path clip-path="url(#p23f8ad243b)" d="M 146.4 216 
L 400.417489 297.458701 
" style="fill:none;stroke:#ff0000;stroke-width:0.15;"/>
    <path clip-path="url(#p23f8ad243b)" d="M 146.4 216 
L 400.417489 297.458701 
" style="fill:none;stroke:#ff0000;stroke-width:0.15;"/>
    <path clip-path="url(#p23f8ad243b)" d="M 189.982511 297.458701 
L 295.2 331.2 
" style="fill:none;stroke:#ff0000;stroke-width:0.15;"/>
    <path clip-path="url(#p23f8ad243b)" d="M 189.982511 297.458701 
L 295.2 331.2 
" style="fill:none;stroke:#ff0000;stroke-width:0.15;"/>
    <path clip-path="url(#p23f8ad243b)" d="M 189.982511 297.458701 
L 400.417489 297.458701 
" style="fill:none;stroke:#ff0000;stroke-width:0.15;"/>
    <path clip-path="url(#p23f8ad243b)" d="M 189.982511 297.458701 
L 400.417489 297.458701 
" style="fill:none;stroke:#ff0000;stroke-width:0.15;"/>
    <path clip-path="url(#p23f8ad243b)" d="M 295.2 331.2 
L 400.417489 297.458701 
" style="fill:none;stroke:#ff0000;stroke-width:0.15;"/>
    <path clip-path="url(#p23f8ad243b)" d="M 295.2 331.2 
L 400.417489 297.458701 
" style="fill:none;stroke:#ff0000;stroke-width:0.15;"/>
   </g>
   <g id="LineCollection_2">
    <path clip-path="url(#p23f8ad243b)" d="M 444 216 
L 400.417489 134.541299 
" style="fill:none;stroke:#ff0000;stroke-width:0.15;"/>
    <path clip-path="url(#p23f8ad243b)" d="M 444 216 
L 400.417489 134.541299 
" style="fill:none;stroke:#ff0000;stroke-width:0.15;"/>
    <path clip-path="url(#p23f8ad243b)" d="M 444 216 
L 295.2 100.8 
" style="fill:none;stroke:#ff0000;stroke-width:0.15;"/>
    <path clip-path="url(#p23f8ad243b)" d="M 444 216 
L 295.2 100.8 
" style="fill:none;stroke:#ff0000;stroke-width:0.15;"/>
    <path clip-path="url(#p23f8ad243b)" d="M 444 216 
L 189.982511 134.541299 
" style="fill:none;stroke:#ff0000;stroke-width:0.15;"/>
    <path clip-path="url(#p23f8ad243b)" d="M 444 216 
L 189.982511 134.541299 
" style="fill:none;stroke:#ff0000;stroke-width:0.15;"/>
    <path clip-path="url(#p23f8ad243b)" d="M 444 216 
L 146.4 216 
" style="fill:none;stroke:#ff0000;stroke-width:0.15;"/>
    <path clip-path="url(#p23f8ad243b)" d="M 444 216 
L 146.4 216 
" style="fill:none;stroke:#ff0000;stroke-width:0.15;"/>
    <path clip-path="url(#p23f8ad243b)" d="M 444 216 
L 189.982511 297.458701 
" style="fill:none;stroke:#ff0000;stroke-width:0.15;"/>
    <path clip-path="url(#p23f8ad243b)" d="M 444 216 
L 189.982511 297.458701 
" style="fill:none;stroke:#ff0000;stroke-width:0.15;"/>
    <path clip-path="url(#p23f8ad243b)" d="M 444 216 
L 295.2 331.2 
" style="fill:none;stroke:#ff0000;stroke-width:0.15;"/>
    <path clip-path="url(#p23f8ad243b)" d="M 444 216 
L 295.2 331.2 
" style="fill:none;stroke:#ff0000;stroke-width:0.15;"/>
    <path clip-path="url(#p23f8ad243b)" d="M 444 216 
L 400.417489 297.458701 
" style="fill:none;stroke:#ff0000;stroke-width:0.15;"/>
    <path clip-path="url(#p23f8ad243b)" d="M 444 216 
L 400.417489 297.458701 
" style="fill:none;stroke:#ff0000;stroke-width:0.15;"/>
    <path clip-path="url(#p23f8ad243b)" d="M 400.417489 134.541299 
L 295.2 100.8 
" style="fill:none;stroke:#ff0000;stroke-width:0.15;"/>
    <path clip-path="url(#p23f8ad243b)" d="M 400.417489 134.541299 
L 295.2 100.8 
" style="fill:none;stroke:#ff0000;stroke-width:0.15;"/>
    <path clip-path="url(#p23f8ad243b)" d="M 400.417489 134.541299 
L 189.982511 134.541299 
" style="fill:none;stroke:#ff0000;stroke-width:0.15;"/>
    <path clip-path="url(#p23f8ad243b)" d="M 400.417489 134.541299 
L 189.982511 134.541299 
" style="fill:none;stroke:#ff0000;stroke-width:0.15;"/>
    <path clip-path="url(#p23f8ad243b)" d="M 400.417489 134.541299 
L 146.4 216 
" style="fill:none;stroke:#ff0000;stroke-width:0.15;"/>
    <path clip-path="url(#p23f8ad243b)" d="M 400.417489 134.541299 
L 146.4 216 
" style="fill:none;stroke:#ff0000;stroke-width:0.15;"/>
    <path clip-path="url(#p23f8ad243b)" d="M 400.417489 134.541299 
L 189.982511 297.458701 
" style="fill:none;stroke:#ff0000;stroke-width:0.15;"/>
    <path clip-path="url(#p23f8ad243b)" d="M 400.417489 134.541299 
L 189.982511 297.458701 
" style="fill:none;stroke:#ff0000;stroke-width:0.15;"/>
    <path clip-path="url(#p23f8ad243b)" d="M 400.417489 134.541299 
L 295.2 331.2 
" style="fill:none;stroke:#ff0000;stroke-width:0.15;"/>
    <path clip-path="url(#p23f8ad243b)" d="M 400.417489 134.541299 
L 295.2 331.2 
" style="fill:none;stroke:#ff0000;stroke-width:0.15;"/>
    <path clip-path="url(#p23f8ad243b)" d="M 400.417489 134.541299 
L 400.417489 297.458701 
" style="fill:none;stroke:#ff0000;stroke-width:0.15;"/>
    <path clip-path="url(#p23f8ad243b)" d="M 400.417489 134.541299 
L 400.417489 297.458701 
" style="fill:none;stroke:#ff0000;stroke-width:0.15;"/>
    <path clip-path="url(#p23f8ad243b)" d="M 295.2 100.8 
L 189.982511 134.541299 
" style="fill:none;stroke:#ff0000;stroke-width:0.15;"/>
    <path clip-path="url(#p23f8ad243b)" d="M 295.2 100.8 
L 189.982511 134.541299 
" style="fill:none;stroke:#ff0000;stroke-width:0.15;"/>
    <path clip-path="url(#p23f8ad243b)" d="M 295.2 100.8 
L 146.4 216 
" style="fill:none;stroke:#ff0000;stroke-width:0.15;"/>
    <path clip-path="url(#p23f8ad243b)" d="M 295.2 100.8 
L 146.4 216 
" style="fill:none;stroke:#ff0000;stroke-width:0.15;"/>
    <path clip-path="url(#p23f8ad243b)" d="M 295.2 100.8 
L 189.982511 297.458701 
" style="fill:none;stroke:#ff0000;stroke-width:0.15;"/>
    <path clip-path="url(#p23f8ad243b)" d="M 295.2 100.8 
L 189.982511 297.458701 
" style="fill:none;stroke:#ff0000;stroke-width:0.15;"/>
    <path clip-path="url(#p23f8ad243b)" d="M 295.2 100.8 
L 295.2 331.2 
" style="fill:none;stroke:#ff0000;stroke-width:0.15;"/>
    <path clip-path="url(#p23f8ad243b)" d="M 295.2 100.8 
L 295.2 331.2 
" style="fill:none;stroke:#ff0000;stroke-width:0.15;"/>
    <path clip-path="url(#p23f8ad243b)" d="M 295.2 100.8 
L 400.417489 297.458701 
" style="fill:none;stroke:#ff0000;stroke-width:0.15;"/>
    <path clip-path="url(#p23f8ad243b)" d="M 295.2 100.8 
L 400.417489 297.458701 
" style="fill:none;stroke:#ff0000;stroke-width:0.15;"/>
    <path clip-path="url(#p23f8ad243b)" d="M 189.982511 134.541299 
L 146.4 216 
" style="fill:none;stroke:#ff0000;stroke-width:0.15;"/>
    <path clip-path="url(#p23f8ad243b)" d="M 189.982511 134.541299 
L 146.4 216 
" style="fill:none;stroke:#ff0000;stroke-width:0.15;"/>
    <path clip-path="url(#p23f8ad243b)" d="M 189.982511 134.541299 
L 189.982511 297.458701 
" style="fill:none;stroke:#ff0000;stroke-width:0.15;"/>
    <path clip-path="url(#p23f8ad243b)" d="M 189.982511 134.541299 
L 189.982511 297.458701 
" style="fill:none;stroke:#ff0000;stroke-width:0.15;"/>
    <path clip-path="url(#p23f8ad243b)" d="M 189.982511 134.541299 
L 295.2 331.2 
" style="fill:none;stroke:#ff0000;stroke-width:0.15;"/>
    <path clip-path="url(#p23f8ad243b)" d="M 189.982511 134.541299 
L 295.2 331.2 
" style="fill:none;stroke:#ff0000;stroke-width:0.15;"/>
    <path clip-path="url(#p23f8ad243b)" d="M 189.982511 134.541299 
L 400.417489 297.458701 
" style="fill:none;stroke:#ff0000;stroke-width:0.15;"/>
    <path clip-path="url(#p23f8ad243b)" d="M 189.982511 134.541299 
L 400.417489 297.458701 
" style="fill:none;stroke:#ff0000;stroke-width:0.15;"/>
    <path clip-path="url(#p23f8ad243b)" d="M 146.4 216 
L 189.982511 297.458701 
" style="fill:none;stroke:#ff0000;stroke-width:0.15;"/>
    <path clip-path="url(#p23f8ad243b)" d="M 146.4 216 
L 189.982511 297.458701 
" style="fill:none;stroke:#ff0000;stroke-width:0.15;"/>
    <path clip-path="url(#p23f8ad243b)" d="M 146.4 216 
L 295.2 331.2 
" style="fill:none;stroke:#ff0000;stroke-width:0.15;"/>
    <path clip-path="url(#p23f8ad243b)" d="M 146.4 216 
L 295.2 331.2 
" style="fill:none;stroke:#ff0000;stroke-width:0.15;"/>
    <path clip-path="url(#p23f8ad243b)" d="M 146.4 216 
L 400.417489 297.458701 
" style="fill:none;stroke:#ff0000;stroke-width:0.15;"/>
    <path clip-path="url(#p23f8ad243b)" d="M 146.4 216 
L 400.417489 297.458701 
" style="fill:none;stroke:#ff0000;stroke-width:0.15;"/>
    <path clip-path="url(#p23f8ad243b)" d="M 189.982511 297.458701 
L 295.2 331.2 
" style="fill:none;stroke:#ff0000;stroke-width:0.15;"/>
    <path clip-path="url(#p23f8ad243b)" d="M 189.982511 297.458701 
L 295.2 331.2 
" style="fill:none;stroke:#ff0000;stroke-width:0.15;"/>
    <path clip-path="url(#p23f8ad243b)" d="M 189.982511 297.458701 
L 400.417489 297.458701 
" style="fill:none;stroke:#ff0000;stroke-width:0.15;"/>
    <path clip-path="url(#p23f8ad243b)" d="M 189.982511 297.458701 
L 400.417489 297.458701 
" style="fill:none;stroke:#ff0000;stroke-width:0.15;"/>
    <path clip-path="url(#p23f8ad243b)" d="M 295.2 331.2 
L 400.417489 297.458701 
" style="fill:none;stroke:#ff0000;stroke-width:0.15;"/>
    <path clip-path="url(#p23f8ad243b)" d="M 295.2 331.2 
L 400.417489 297.458701 
" style="fill:none;stroke:#ff0000;stroke-width:0.15;"/>
   </g>
   <g id="LineCollection_3">
    <path clip-path="url(#p23f8ad243b)" d="M 444 216 
L 295.2 331.2 
" style="fill:none;stroke:#008000;"/>
    <path clip-path="url(#p23f8ad243b)" d="M 295.2 331.2 
L 189.982511 134.541299 
" style="fill:none;stroke:#008000;"/>
    <path clip-path="url(#p23f8ad243b)" d="M 189.982511 134.541299 
L 146.4 216 
" style="fill:none;stroke:#008000;"/>
    <path clip-path="url(#p23f8ad243b)" d="M 146.4 216 
L 400.417489 134.541299 
" style="fill:none;stroke:#008000;"/>
    <path clip-path="url(#p23f8ad243b)" d="M 400.417489 134.541299 
L 189.982511 297.458701 
" style="fill:none;stroke:#008000;"/>
    <path clip-path="url(#p23f8ad243b)" d="M 189.982511 297.458701 
L 295.2 100.8 
" style="fill:none;stroke:#008000;"/>
    <path clip-path="url(#p23f8ad243b)" d="M 295.2 100.8 
L 400.417489 297.458701 
" style="fill:none;stroke:#008000;"/>
    <path clip-path="url(#p23f8ad243b)" d="M 400.417489 297.458701 
L 444 216 
" style="fill:none;stroke:#008000;"/>
   </g>
   <g id="text_1">
    <g id="patch_2">
     <path clip-path="url(#p23f8ad243b)" d="M 196.538874 153.44239 
L 198.94008 157.930408 
Q 199.50618 158.988487 200.564259 158.422388 
L 203.977666 156.596127 
Q 205.035745 156.030027 204.469645 154.971948 
L 202.068439 150.48393 
Q 201.50234 149.425851 200.444261 149.99195 
L 197.030854 151.818211 
Q 195.972775 152.384311 196.538874 153.44239 
z
" style="fill:#ffffff;stroke:#ffffff;stroke-linejoin:miter;"/>
    </g>
    <g clip-path="url(#p23f8ad243b)">
     <!-- 19 -->
     <defs>
      <path d="M 10.984375 1.515625 
L 10.984375 10.5 
Q 14.703125 8.734375 18.5 7.8125 
Q 22.3125 6.890625 25.984375 6.890625 
Q 35.75 6.890625 40.890625 13.453125 
Q 46.046875 20.015625 46.78125 33.40625 
Q 43.953125 29.203125 39.59375 26.953125 
Q 35.25 24.703125 29.984375 24.703125 
Q 19.046875 24.703125 12.671875 31.3125 
Q 6.296875 37.9375 6.296875 49.421875 
Q 6.296875 60.640625 12.9375 67.421875 
Q 19.578125 74.21875 30.609375 74.21875 
Q 43.265625 74.21875 49.921875 64.515625 
Q 56.59375 54.828125 56.59375 36.375 
Q 56.59375 19.140625 48.40625 8.859375 
Q 40.234375 -1.421875 26.421875 -1.421875 
Q 22.703125 -1.421875 18.890625 -0.6875 
Q 15.09375 0.046875 10.984375 1.515625 
M 30.609375 32.421875 
Q 37.25 32.421875 41.125 36.953125 
Q 45.015625 41.5 45.015625 49.421875 
Q 45.015625 57.28125 41.125 61.84375 
Q 37.25 66.40625 30.609375 66.40625 
Q 23.96875 66.40625 20.09375 61.84375 
Q 16.21875 57.28125 16.21875 49.421875 
Q 16.21875 41.5 20.09375 36.953125 
Q 23.96875 32.421875 30.609375 32.421875 
" id="BitstreamVeraSans-Roman-39"/>
      <path d="M 12.40625 8.296875 
L 28.515625 8.296875 
L 28.515625 63.921875 
L 10.984375 60.40625 
L 10.984375 69.390625 
L 28.421875 72.90625 
L 38.28125 72.90625 
L 38.28125 8.296875 
L 54.390625 8.296875 
L 54.390625 0 
L 12.40625 0 
z
" id="BitstreamVeraSans-Roman-31"/>
     </defs>
     <g transform="translate(198.330444638 152.483853394)rotate(-298.147932769)scale(0.04 -0.04)">
      <use xlink:href="#BitstreamVeraSans-Roman-31"/>
      <use x="63.623046875" xlink:href="#BitstreamVeraSans-Roman-39"/>
     </g>
    </g>
   </g>
   <g id="text_2">
    <g id="patch_3">
     <path clip-path="url(#p23f8ad243b)" d="M 425.188063 205.401432 
L 429.212846 208.517394 
Q 430.161715 209.252002 430.896323 208.303133 
L 433.266198 205.242044 
Q 434.000806 204.293176 433.051937 203.558568 
L 429.027154 200.442606 
Q 428.078285 199.707998 427.343677 200.656867 
L 424.973802 203.717956 
Q 424.239194 204.666824 425.188063 205.401432 
z
" style="fill:#ffffff;stroke:#ffffff;stroke-linejoin:miter;"/>
    </g>
    <g clip-path="url(#p23f8ad243b)">
     <!-- 27 -->
     <defs>
      <path d="M 19.1875 8.296875 
L 53.609375 8.296875 
L 53.609375 0 
L 7.328125 0 
L 7.328125 8.296875 
Q 12.9375 14.109375 22.625 23.890625 
Q 32.328125 33.6875 34.8125 36.53125 
Q 39.546875 41.84375 41.421875 45.53125 
Q 43.3125 49.21875 43.3125 52.78125 
Q 43.3125 58.59375 39.234375 62.25 
Q 35.15625 65.921875 28.609375 65.921875 
Q 23.96875 65.921875 18.8125 64.3125 
Q 13.671875 62.703125 7.8125 59.421875 
L 7.8125 69.390625 
Q 13.765625 71.78125 18.9375 73 
Q 24.125 74.21875 28.421875 74.21875 
Q 39.75 74.21875 46.484375 68.546875 
Q 53.21875 62.890625 53.21875 53.421875 
Q 53.21875 48.921875 51.53125 44.890625 
Q 49.859375 40.875 45.40625 35.40625 
Q 44.1875 33.984375 37.640625 27.21875 
Q 31.109375 20.453125 19.1875 8.296875 
" id="BitstreamVeraSans-Roman-32"/>
      <path d="M 8.203125 72.90625 
L 55.078125 72.90625 
L 55.078125 68.703125 
L 28.609375 0 
L 18.3125 0 
L 43.21875 64.59375 
L 8.203125 64.59375 
z
" id="BitstreamVeraSans-Roman-37"/>
     </defs>
     <g transform="translate(426.431922002 203.794780516)rotate(-322.253194613)scale(0.04 -0.04)">
      <use xlink:href="#BitstreamVeraSans-Roman-32"/>
      <use x="63.623046875" xlink:href="#BitstreamVeraSans-Roman-37"/>
     </g>
    </g>
   </g>
   <g id="text_3">
    <g id="patch_4">
     <path clip-path="url(#p23f8ad243b)" d="M 207.094071 151.754471 
L 211.118855 154.870433 
Q 212.067723 155.605041 212.802331 154.656172 
L 215.172207 151.595083 
Q 215.906815 150.646215 214.957946 149.911607 
L 210.933162 146.795645 
Q 209.984294 146.061037 209.249686 147.009906 
L 206.879811 150.070995 
Q 206.145203 151.019863 207.094071 151.754471 
z
" style="fill:#ffffff;stroke:#ffffff;stroke-linejoin:miter;"/>
    </g>
    <g clip-path="url(#p23f8ad243b)">
     <!-- 47 -->
     <defs>
      <path d="M 37.796875 64.3125 
L 12.890625 25.390625 
L 37.796875 25.390625 
z
M 35.203125 72.90625 
L 47.609375 72.90625 
L 47.609375 25.390625 
L 58.015625 25.390625 
L 58.015625 17.1875 
L 47.609375 17.1875 
L 47.609375 0 
L 37.796875 0 
L 37.796875 17.1875 
L 4.890625 17.1875 
L 4.890625 26.703125 
z
" id="BitstreamVeraSans-Roman-34"/>
     </defs>
     <g transform="translate(208.33793077 150.147819562)rotate(-322.253194613)scale(0.04 -0.04)">
      <use xlink:href="#BitstreamVeraSans-Roman-34"/>
      <use x="63.623046875" xlink:href="#BitstreamVeraSans-Roman-37"/>
     </g>
    </g>
   </g>
   <g id="text_4">
    <g id="patch_5">
     <path clip-path="url(#p23f8ad243b)" d="M 146.792866 223.381091 
L 149.194072 227.869109 
Q 149.760171 228.927189 150.81825 228.361089 
L 154.231657 226.534828 
Q 155.289736 225.968728 154.723637 224.910649 
L 152.322431 220.422631 
Q 151.756331 219.364552 150.698252 219.930651 
L 147.284845 221.756912 
Q 146.226766 222.323012 146.792866 223.381091 
z
" style="fill:#ffffff;stroke:#ffffff;stroke-linejoin:miter;"/>
    </g>
    <g clip-path="url(#p23f8ad243b)">
     <!-- 42 -->
     <g transform="translate(148.58443587 222.422554586)rotate(-298.14793277)scale(0.04 -0.04)">
      <use xlink:href="#BitstreamVeraSans-Roman-34"/>
      <use x="63.623046875" xlink:href="#BitstreamVeraSans-Roman-32"/>
     </g>
    </g>
   </g>
   <g id="text_5">
    <g id="patch_6">
     <path clip-path="url(#p23f8ad243b)" d="M 403.553114 153.378039 
L 403.553114 148.288039 
Q 403.553114 147.088039 402.353114 147.088039 
L 398.481864 147.088039 
Q 397.281864 147.088039 397.281864 148.288039 
L 397.281864 153.378039 
Q 397.281864 154.578039 398.481864 154.578039 
L 402.353114 154.578039 
Q 403.553114 154.578039 403.553114 153.378039 
z
" style="fill:#ffffff;stroke:#ffffff;stroke-linejoin:miter;"/>
    </g>
    <g clip-path="url(#p23f8ad243b)">
     <!-- 32 -->
     <defs>
      <path d="M 40.578125 39.3125 
Q 47.65625 37.796875 51.625 33 
Q 55.609375 28.21875 55.609375 21.1875 
Q 55.609375 10.40625 48.1875 4.484375 
Q 40.765625 -1.421875 27.09375 -1.421875 
Q 22.515625 -1.421875 17.65625 -0.515625 
Q 12.796875 0.390625 7.625 2.203125 
L 7.625 11.71875 
Q 11.71875 9.328125 16.59375 8.109375 
Q 21.484375 6.890625 26.8125 6.890625 
Q 36.078125 6.890625 40.9375 10.546875 
Q 45.796875 14.203125 45.796875 21.1875 
Q 45.796875 27.640625 41.28125 31.265625 
Q 36.765625 34.90625 28.71875 34.90625 
L 20.21875 34.90625 
L 20.21875 43.015625 
L 29.109375 43.015625 
Q 36.375 43.015625 40.234375 45.921875 
Q 44.09375 48.828125 44.09375 54.296875 
Q 44.09375 59.90625 40.109375 62.90625 
Q 36.140625 65.921875 28.71875 65.921875 
Q 24.65625 65.921875 20.015625 65.03125 
Q 15.375 64.15625 9.8125 62.3125 
L 9.8125 71.09375 
Q 15.4375 72.65625 20.34375 73.4375 
Q 25.25 74.21875 29.59375 74.21875 
Q 40.828125 74.21875 47.359375 69.109375 
Q 53.90625 64.015625 53.90625 55.328125 
Q 53.90625 49.265625 50.4375 45.09375 
Q 46.96875 40.921875 40.578125 39.3125 
" id="BitstreamVeraSans-Roman-33"/>
     </defs>
     <g transform="translate(401.521239041 153.378039046)rotate(-90.0)scale(0.04 -0.04)">
      <use xlink:href="#BitstreamVeraSans-Roman-33"/>
      <use x="63.623046875" xlink:href="#BitstreamVeraSans-Roman-32"/>
     </g>
    </g>
   </g>
   <g id="text_6">
    <g id="patch_7">
     <path clip-path="url(#p23f8ad243b)" d="M 417.132319 227.908876 
L 421.979199 226.354572 
Q 423.121881 225.988135 422.755444 224.845452 
L 421.573303 221.15911 
Q 421.206865 220.016427 420.064183 220.382864 
L 415.217304 221.937169 
Q 414.074621 222.303606 414.441058 223.446288 
L 415.6232 227.13263 
Q 415.989637 228.275313 417.132319 227.908876 
z
" style="fill:#ffffff;stroke:#ffffff;stroke-linejoin:miter;"/>
    </g>
    <g clip-path="url(#p23f8ad243b)">
     <!-- 65 -->
     <defs>
      <path d="M 33.015625 40.375 
Q 26.375 40.375 22.484375 35.828125 
Q 18.609375 31.296875 18.609375 23.390625 
Q 18.609375 15.53125 22.484375 10.953125 
Q 26.375 6.390625 33.015625 6.390625 
Q 39.65625 6.390625 43.53125 10.953125 
Q 47.40625 15.53125 47.40625 23.390625 
Q 47.40625 31.296875 43.53125 35.828125 
Q 39.65625 40.375 33.015625 40.375 
M 52.59375 71.296875 
L 52.59375 62.3125 
Q 48.875 64.0625 45.09375 64.984375 
Q 41.3125 65.921875 37.59375 65.921875 
Q 27.828125 65.921875 22.671875 59.328125 
Q 17.53125 52.734375 16.796875 39.40625 
Q 19.671875 43.65625 24.015625 45.921875 
Q 28.375 48.1875 33.59375 48.1875 
Q 44.578125 48.1875 50.953125 41.515625 
Q 57.328125 34.859375 57.328125 23.390625 
Q 57.328125 12.15625 50.6875 5.359375 
Q 44.046875 -1.421875 33.015625 -1.421875 
Q 20.359375 -1.421875 13.671875 8.265625 
Q 6.984375 17.96875 6.984375 36.375 
Q 6.984375 53.65625 15.1875 63.9375 
Q 23.390625 74.21875 37.203125 74.21875 
Q 40.921875 74.21875 44.703125 73.484375 
Q 48.484375 72.75 52.59375 71.296875 
" id="BitstreamVeraSans-Roman-36"/>
      <path d="M 10.796875 72.90625 
L 49.515625 72.90625 
L 49.515625 64.59375 
L 19.828125 64.59375 
L 19.828125 46.734375 
Q 21.96875 47.46875 24.109375 47.828125 
Q 26.265625 48.1875 28.421875 48.1875 
Q 40.625 48.1875 47.75 41.5 
Q 54.890625 34.8125 54.890625 23.390625 
Q 54.890625 11.625 47.5625 5.09375 
Q 40.234375 -1.421875 26.90625 -1.421875 
Q 22.3125 -1.421875 17.546875 -0.640625 
Q 12.796875 0.140625 7.71875 1.703125 
L 7.71875 11.625 
Q 12.109375 9.234375 16.796875 8.0625 
Q 21.484375 6.890625 26.703125 6.890625 
Q 35.15625 6.890625 40.078125 11.328125 
Q 45.015625 15.765625 45.015625 23.390625 
Q 45.015625 31 40.078125 35.4375 
Q 35.15625 39.890625 26.703125 39.890625 
Q 22.75 39.890625 18.8125 39.015625 
Q 14.890625 38.140625 10.796875 36.28125 
z
" id="BitstreamVeraSans-Roman-35"/>
     </defs>
     <g transform="translate(416.51185735 225.974052331)rotate(-17.7800829933)scale(0.04 -0.04)">
      <use xlink:href="#BitstreamVeraSans-Roman-36"/>
      <use x="63.623046875" xlink:href="#BitstreamVeraSans-Roman-35"/>
     </g>
    </g>
   </g>
   <g id="text_7">
    <g id="patch_8">
     <path clip-path="url(#p23f8ad243b)" d="M 298.335625 126.385 
L 298.335625 121.295 
Q 298.335625 120.095 297.135625 120.095 
L 293.264375 120.095 
Q 292.064375 120.095 292.064375 121.295 
L 292.064375 126.385 
Q 292.064375 127.585 293.264375 127.585 
L 297.135625 127.585 
Q 298.335625 127.585 298.335625 126.385 
z
" style="fill:#ffffff;stroke:#ffffff;stroke-linejoin:miter;"/>
    </g>
    <g clip-path="url(#p23f8ad243b)">
     <!-- 80 -->
     <defs>
      <path d="M 31.78125 34.625 
Q 24.75 34.625 20.71875 30.859375 
Q 16.703125 27.09375 16.703125 20.515625 
Q 16.703125 13.921875 20.71875 10.15625 
Q 24.75 6.390625 31.78125 6.390625 
Q 38.8125 6.390625 42.859375 10.171875 
Q 46.921875 13.96875 46.921875 20.515625 
Q 46.921875 27.09375 42.890625 30.859375 
Q 38.875 34.625 31.78125 34.625 
M 21.921875 38.8125 
Q 15.578125 40.375 12.03125 44.71875 
Q 8.5 49.078125 8.5 55.328125 
Q 8.5 64.0625 14.71875 69.140625 
Q 20.953125 74.21875 31.78125 74.21875 
Q 42.671875 74.21875 48.875 69.140625 
Q 55.078125 64.0625 55.078125 55.328125 
Q 55.078125 49.078125 51.53125 44.71875 
Q 48 40.375 41.703125 38.8125 
Q 48.828125 37.15625 52.796875 32.3125 
Q 56.78125 27.484375 56.78125 20.515625 
Q 56.78125 9.90625 50.3125 4.234375 
Q 43.84375 -1.421875 31.78125 -1.421875 
Q 19.734375 -1.421875 13.25 4.234375 
Q 6.78125 9.90625 6.78125 20.515625 
Q 6.78125 27.484375 10.78125 32.3125 
Q 14.796875 37.15625 21.921875 38.8125 
M 18.3125 54.390625 
Q 18.3125 48.734375 21.84375 45.5625 
Q 25.390625 42.390625 31.78125 42.390625 
Q 38.140625 42.390625 41.71875 45.5625 
Q 45.3125 48.734375 45.3125 54.390625 
Q 45.3125 60.0625 41.71875 63.234375 
Q 38.140625 66.40625 31.78125 66.40625 
Q 25.390625 66.40625 21.84375 63.234375 
Q 18.3125 60.0625 18.3125 54.390625 
" id="BitstreamVeraSans-Roman-38"/>
      <path d="M 31.78125 66.40625 
Q 24.171875 66.40625 20.328125 58.90625 
Q 16.5 51.421875 16.5 36.375 
Q 16.5 21.390625 20.328125 13.890625 
Q 24.171875 6.390625 31.78125 6.390625 
Q 39.453125 6.390625 43.28125 13.890625 
Q 47.125 21.390625 47.125 36.375 
Q 47.125 51.421875 43.28125 58.90625 
Q 39.453125 66.40625 31.78125 66.40625 
M 31.78125 74.21875 
Q 44.046875 74.21875 50.515625 64.515625 
Q 56.984375 54.828125 56.984375 36.375 
Q 56.984375 17.96875 50.515625 8.265625 
Q 44.046875 -1.421875 31.78125 -1.421875 
Q 19.53125 -1.421875 13.0625 8.265625 
Q 6.59375 17.96875 6.59375 36.375 
Q 6.59375 54.828125 13.0625 64.515625 
Q 19.53125 74.21875 31.78125 74.21875 
" id="BitstreamVeraSans-Roman-30"/>
     </defs>
     <g transform="translate(296.30375 126.385)rotate(-90.0)scale(0.04 -0.04)">
      <use xlink:href="#BitstreamVeraSans-Roman-38"/>
      <use x="63.623046875" xlink:href="#BitstreamVeraSans-Roman-30"/>
     </g>
    </g>
   </g>
   <g id="text_8">
    <g id="patch_9">
     <path clip-path="url(#p23f8ad243b)" d="M 373.549808 146.450175 
L 378.396688 144.895871 
Q 379.53937 144.529433 379.172933 143.386751 
L 377.990792 139.700409 
Q 377.624354 138.557726 376.481672 138.924163 
L 371.634793 140.478467 
Q 370.49211 140.844905 370.858547 141.987587 
L 372.040689 145.673929 
Q 372.407126 146.816612 373.549808 146.450175 
z
" style="fill:#ffffff;stroke:#ffffff;stroke-linejoin:miter;"/>
    </g>
    <g clip-path="url(#p23f8ad243b)">
     <!-- 32 -->
     <g transform="translate(372.929346391 144.515351139)rotate(-17.7800829933)scale(0.04 -0.04)">
      <use xlink:href="#BitstreamVeraSans-Roman-33"/>
      <use x="63.623046875" xlink:href="#BitstreamVeraSans-Roman-32"/>
     </g>
    </g>
   </g>
   <g id="text_9">
    <g id="patch_10">
     <path clip-path="url(#p23f8ad243b)" d="M 168.420801 226.354572 
L 173.267681 227.908876 
Q 174.410363 228.275313 174.7768 227.13263 
L 175.958942 223.446288 
Q 176.325379 222.303606 175.182696 221.937169 
L 170.335817 220.382864 
Q 169.193135 220.016427 168.826697 221.15911 
L 167.644556 224.845452 
Q 167.278119 225.988135 168.420801 226.354572 
z
" style="fill:#ffffff;stroke:#ffffff;stroke-linejoin:miter;"/>
    </g>
    <g clip-path="url(#p23f8ad243b)">
     <!-- 41 -->
     <g transform="translate(169.041263445 224.419747995)rotate(-342.219917006)scale(0.04 -0.04)">
      <use xlink:href="#BitstreamVeraSans-Roman-34"/>
      <use x="63.623046875" xlink:href="#BitstreamVeraSans-Roman-31"/>
     </g>
    </g>
   </g>
   <g id="text_10">
    <g id="patch_11">
     <path clip-path="url(#p23f8ad243b)" d="M 435.676363 207.089351 
L 438.077569 211.577369 
Q 438.643669 212.635448 439.701748 212.069349 
L 443.115155 210.243088 
Q 444.173234 209.676988 443.607134 208.618909 
L 441.205928 204.130891 
Q 440.639829 203.072811 439.58175 203.638911 
L 436.168343 205.465172 
Q 435.110264 206.031272 435.676363 207.089351 
z
" style="fill:#ffffff;stroke:#ffffff;stroke-linejoin:miter;"/>
    </g>
    <g clip-path="url(#p23f8ad243b)">
     <!-- 16 -->
     <g transform="translate(437.467933678 206.130814348)rotate(-298.147932771)scale(0.04 -0.04)">
      <use xlink:href="#BitstreamVeraSans-Roman-31"/>
      <use x="63.623046875" xlink:href="#BitstreamVeraSans-Roman-36"/>
     </g>
    </g>
   </g>
   <g id="text_11">
    <g id="patch_12">
     <path clip-path="url(#p23f8ad243b)" d="M 197.123312 303.041533 
L 201.970192 304.595837 
Q 203.112874 304.962274 203.479311 303.819591 
L 204.661453 300.133249 
Q 205.02789 298.990567 203.885207 298.624129 
L 199.038328 297.069825 
Q 197.895646 296.703388 197.529208 297.846071 
L 196.347067 301.532413 
Q 195.98063 302.675095 197.123312 303.041533 
z
" style="fill:#ffffff;stroke:#ffffff;stroke-linejoin:miter;"/>
    </g>
    <g clip-path="url(#p23f8ad243b)">
     <!-- 76 -->
     <g transform="translate(197.743774404 301.106708949)rotate(-342.219917006)scale(0.04 -0.04)">
      <use xlink:href="#BitstreamVeraSans-Roman-37"/>
      <use x="63.623046875" xlink:href="#BitstreamVeraSans-Roman-36"/>
     </g>
    </g>
   </g>
   <g id="text_12">
    <g id="patch_13">
     <path clip-path="url(#p23f8ad243b)" d="M 411.695 219.135625 
L 416.785 219.135625 
Q 417.985 219.135625 417.985 217.935625 
L 417.985 214.064375 
Q 417.985 212.864375 416.785 212.864375 
L 411.695 212.864375 
Q 410.495 212.864375 410.495 214.064375 
L 410.495 217.935625 
Q 410.495 219.135625 411.695 219.135625 
z
" style="fill:#ffffff;stroke:#ffffff;stroke-linejoin:miter;"/>
    </g>
    <g clip-path="url(#p23f8ad243b)">
     <!-- 34 -->
     <g transform="translate(411.695 217.10375)scale(0.04 -0.04)">
      <use xlink:href="#BitstreamVeraSans-Roman-33"/>
      <use x="63.623046875" xlink:href="#BitstreamVeraSans-Roman-34"/>
     </g>
    </g>
   </g>
   <g id="text_13">
    <g id="patch_14">
     <path clip-path="url(#p23f8ad243b)" d="M 286.242431 124.189109 
L 288.643637 119.701091 
Q 289.209736 118.643012 288.151657 118.076912 
L 284.73825 116.250651 
Q 283.680171 115.684552 283.114072 116.742631 
L 280.712866 121.230649 
Q 280.146766 122.288728 281.204845 122.854828 
L 284.618252 124.681089 
Q 285.676331 125.247189 286.242431 124.189109 
z
" style="fill:#ffffff;stroke:#ffffff;stroke-linejoin:miter;"/>
    </g>
    <g clip-path="url(#p23f8ad243b)">
     <!-- 35 -->
     <g transform="translate(284.450860399 123.230573093)rotate(-61.8520672301)scale(0.04 -0.04)">
      <use xlink:href="#BitstreamVeraSans-Roman-33"/>
      <use x="63.623046875" xlink:href="#BitstreamVeraSans-Roman-35"/>
     </g>
    </g>
   </g>
   <g id="text_14">
    <g id="patch_15">
     <path clip-path="url(#p23f8ad243b)" d="M 379.281145 154.870433 
L 383.305929 151.754471 
Q 384.254797 151.019863 383.520189 150.070995 
L 381.150314 147.009906 
Q 380.415706 146.061037 379.466837 146.795645 
L 375.442054 149.911607 
Q 374.493185 150.646215 375.227793 151.595083 
L 377.597669 154.656172 
Q 378.332277 155.605041 379.281145 154.870433 
z
" style="fill:#ffffff;stroke:#ffffff;stroke-linejoin:miter;"/>
    </g>
    <g clip-path="url(#p23f8ad243b)">
     <!-- 16 -->
     <g transform="translate(378.037285558 153.263781114)rotate(-37.7468053887)scale(0.04 -0.04)">
      <use xlink:href="#BitstreamVeraSans-Roman-31"/>
      <use x="63.623046875" xlink:href="#BitstreamVeraSans-Roman-36"/>
     </g>
    </g>
   </g>
   <g id="text_15">
    <g id="patch_16">
     <path clip-path="url(#p23f8ad243b)" d="M 187.188439 146.410408 
L 189.589645 141.92239 
Q 190.155745 140.864311 189.097666 140.298211 
L 185.684259 138.47195 
Q 184.62618 137.905851 184.06008 138.96393 
L 181.658874 143.451948 
Q 181.092775 144.510027 182.150854 145.076127 
L 185.564261 146.902388 
Q 186.62234 147.468487 187.188439 146.410408 
z
" style="fill:#ffffff;stroke:#ffffff;stroke-linejoin:miter;"/>
    </g>
    <g clip-path="url(#p23f8ad243b)">
     <!-- 34 -->
     <g transform="translate(185.396869167 145.4518719)rotate(-61.8520672301)scale(0.04 -0.04)">
      <use xlink:href="#BitstreamVeraSans-Roman-33"/>
      <use x="63.623046875" xlink:href="#BitstreamVeraSans-Roman-34"/>
     </g>
    </g>
   </g>
   <g id="text_16">
    <g id="patch_17">
     <path clip-path="url(#p23f8ad243b)" d="M 415.217304 210.062831 
L 420.064183 211.617136 
Q 421.206865 211.983573 421.573303 210.84089 
L 422.755444 207.154548 
Q 423.121881 206.011865 421.979199 205.645428 
L 417.132319 204.091124 
Q 415.989637 203.724687 415.6232 204.86737 
L 414.441058 208.553712 
Q 414.074621 209.696394 415.217304 210.062831 
z
" style="fill:#ffffff;stroke:#ffffff;stroke-linejoin:miter;"/>
    </g>
    <g clip-path="url(#p23f8ad243b)">
     <!-- 89 -->
     <g transform="translate(415.837765636 208.128007756)rotate(-342.219917007)scale(0.04 -0.04)">
      <use xlink:href="#BitstreamVeraSans-Roman-38"/>
      <use x="63.623046875" xlink:href="#BitstreamVeraSans-Roman-39"/>
     </g>
    </g>
   </g>
   <g id="text_17">
    <g id="patch_18">
     <path clip-path="url(#p23f8ad243b)" d="M 386.514793 133.375871 
L 391.361672 134.930175 
Q 392.504354 135.296612 392.870792 134.153929 
L 394.052933 130.467587 
Q 394.41937 129.324905 393.276688 128.958467 
L 388.429808 127.404163 
Q 387.287126 127.037726 386.920689 128.180409 
L 385.738547 131.866751 
Q 385.37211 133.009433 386.514793 133.375871 
z
" style="fill:#ffffff;stroke:#ffffff;stroke-linejoin:miter;"/>
    </g>
    <g clip-path="url(#p23f8ad243b)">
     <!-- 56 -->
     <g transform="translate(387.135254677 131.441046802)rotate(-342.219917004)scale(0.04 -0.04)">
      <use xlink:href="#BitstreamVeraSans-Roman-35"/>
      <use x="63.623046875" xlink:href="#BitstreamVeraSans-Roman-36"/>
     </g>
    </g>
   </g>
   <g id="text_18">
    <g id="patch_19">
     <path clip-path="url(#p23f8ad243b)" d="M 208.481009 300.594326 
L 213.571009 300.594326 
Q 214.771009 300.594326 214.771009 299.394326 
L 214.771009 295.523076 
Q 214.771009 294.323076 213.571009 294.323076 
L 208.481009 294.323076 
Q 207.281009 294.323076 207.281009 295.523076 
L 207.281009 299.394326 
Q 207.281009 300.594326 208.481009 300.594326 
z
" style="fill:#ffffff;stroke:#ffffff;stroke-linejoin:miter;"/>
    </g>
    <g clip-path="url(#p23f8ad243b)">
     <!-- 82 -->
     <g transform="translate(208.481008768 298.562451193)scale(0.04 -0.04)">
      <use xlink:href="#BitstreamVeraSans-Roman-38"/>
      <use x="63.623046875" xlink:href="#BitstreamVeraSans-Roman-32"/>
     </g>
    </g>
   </g>
   <g id="text_19">
    <g id="patch_20">
     <path clip-path="url(#p23f8ad243b)" d="M 280.227154 116.357394 
L 284.251937 113.241432 
Q 285.200806 112.506824 284.466198 111.557956 
L 282.096323 108.496867 
Q 281.361715 107.547998 280.412846 108.282606 
L 276.388063 111.398568 
Q 275.439194 112.133176 276.173802 113.082044 
L 278.543677 116.143133 
Q 279.278285 117.092002 280.227154 116.357394 
z
" style="fill:#ffffff;stroke:#ffffff;stroke-linejoin:miter;"/>
    </g>
    <g clip-path="url(#p23f8ad243b)">
     <!-- 57 -->
     <g transform="translate(278.983294326 114.750742068)rotate(-37.746805387)scale(0.04 -0.04)">
      <use xlink:href="#BitstreamVeraSans-Roman-35"/>
      <use x="63.623046875" xlink:href="#BitstreamVeraSans-Roman-37"/>
     </g>
    </g>
   </g>
   <g id="text_20">
    <g id="patch_21">
     <path clip-path="url(#p23f8ad243b)" d="M 391.45992 157.930408 
L 393.861126 153.44239 
Q 394.427225 152.384311 393.369146 151.818211 
L 389.955739 149.99195 
Q 388.89766 149.425851 388.331561 150.48393 
L 385.930355 154.971948 
Q 385.364255 156.030027 386.422334 156.596127 
L 389.835741 158.422388 
Q 390.89382 158.988487 391.45992 157.930408 
z
" style="fill:#ffffff;stroke:#ffffff;stroke-linejoin:miter;"/>
    </g>
    <g clip-path="url(#p23f8ad243b)">
     <!-- 64 -->
     <g transform="translate(389.66834944 156.9718719)rotate(-61.8520672322)scale(0.04 -0.04)">
      <use xlink:href="#BitstreamVeraSans-Roman-36"/>
      <use x="63.623046875" xlink:href="#BitstreamVeraSans-Roman-34"/>
     </g>
    </g>
   </g>
   <g id="text_21">
    <g id="patch_22">
     <path clip-path="url(#p23f8ad243b)" d="M 193.118136 153.378039 
L 193.118136 148.288039 
Q 193.118136 147.088039 191.918136 147.088039 
L 188.046886 147.088039 
Q 186.846886 147.088039 186.846886 148.288039 
L 186.846886 153.378039 
Q 186.846886 154.578039 188.046886 154.578039 
L 191.918136 154.578039 
Q 193.118136 154.578039 193.118136 153.378039 
z
" style="fill:#ffffff;stroke:#ffffff;stroke-linejoin:miter;"/>
    </g>
    <g clip-path="url(#p23f8ad243b)">
     <!-- 51 -->
     <g transform="translate(191.086260959 153.378039046)rotate(-90.0)scale(0.04 -0.04)">
      <use xlink:href="#BitstreamVeraSans-Roman-35"/>
      <use x="63.623046875" xlink:href="#BitstreamVeraSans-Roman-31"/>
     </g>
    </g>
   </g>
   <g id="text_22">
    <g id="patch_23">
     <path clip-path="url(#p23f8ad243b)" d="M 304.255817 331.588876 
L 309.102696 330.034572 
Q 310.245379 329.668135 309.878942 328.525452 
L 308.6968 324.83911 
Q 308.330363 323.696427 307.187681 324.062864 
L 302.340801 325.617169 
Q 301.198119 325.983606 301.564556 327.126288 
L 302.746697 330.81263 
Q 303.113135 331.955313 304.255817 331.588876 
z
" style="fill:#ffffff;stroke:#ffffff;stroke-linejoin:miter;"/>
    </g>
    <g clip-path="url(#p23f8ad243b)">
     <!-- 38 -->
     <g transform="translate(303.635355158 329.654052331)rotate(-17.7800829933)scale(0.04 -0.04)">
      <use xlink:href="#BitstreamVeraSans-Roman-33"/>
      <use x="63.623046875" xlink:href="#BitstreamVeraSans-Roman-38"/>
     </g>
    </g>
   </g>
   <g id="text_23">
    <g id="patch_24">
     <path clip-path="url(#p23f8ad243b)" d="M 157.348063 228.441432 
L 161.372846 231.557394 
Q 162.321715 232.292002 163.056323 231.343133 
L 165.426198 228.282044 
Q 166.160806 227.333176 165.211937 226.598568 
L 161.187154 223.482606 
Q 160.238285 222.747998 159.503677 223.696867 
L 157.133802 226.757956 
Q 156.399194 227.706824 157.348063 228.441432 
z
" style="fill:#ffffff;stroke:#ffffff;stroke-linejoin:miter;"/>
    </g>
    <g clip-path="url(#p23f8ad243b)">
     <!-- 59 -->
     <g transform="translate(158.591922002 226.834780516)rotate(-322.253194612)scale(0.04 -0.04)">
      <use xlink:href="#BitstreamVeraSans-Roman-35"/>
      <use x="63.623046875" xlink:href="#BitstreamVeraSans-Roman-39"/>
     </g>
    </g>
   </g>
   <g id="text_24">
    <g id="patch_25">
     <path clip-path="url(#p23f8ad243b)" d="M 301.756363 119.701091 
L 304.157569 124.189109 
Q 304.723669 125.247189 305.781748 124.681089 
L 309.195155 122.854828 
Q 310.253234 122.288728 309.687134 121.230649 
L 307.285928 116.742631 
Q 306.719829 115.684552 305.66175 116.250651 
L 302.248343 118.076912 
Q 301.190264 118.643012 301.756363 119.701091 
z
" style="fill:#ffffff;stroke:#ffffff;stroke-linejoin:miter;"/>
    </g>
    <g clip-path="url(#p23f8ad243b)">
     <!-- 25 -->
     <g transform="translate(303.547933678 118.742554586)rotate(-298.14793277)scale(0.04 -0.04)">
      <use xlink:href="#BitstreamVeraSans-Roman-32"/>
      <use x="63.623046875" xlink:href="#BitstreamVeraSans-Roman-35"/>
     </g>
    </g>
   </g>
   <g id="text_25">
    <g id="patch_26">
     <path clip-path="url(#p23f8ad243b)" d="M 441.205928 227.869109 
L 443.607134 223.381091 
Q 444.173234 222.323012 443.115155 221.756912 
L 439.701748 219.930651 
Q 438.643669 219.364552 438.077569 220.422631 
L 435.676363 224.910649 
Q 435.110264 225.968728 436.168343 226.534828 
L 439.58175 228.361089 
Q 440.639829 228.927189 441.205928 227.869109 
z
" style="fill:#ffffff;stroke:#ffffff;stroke-linejoin:miter;"/>
    </g>
    <g clip-path="url(#p23f8ad243b)">
     <!-- 10 -->
     <g transform="translate(439.414358207 226.910573093)rotate(-61.8520672301)scale(0.04 -0.04)">
      <use xlink:href="#BitstreamVeraSans-Roman-31"/>
      <use x="63.623046875" xlink:href="#BitstreamVeraSans-Roman-30"/>
     </g>
    </g>
   </g>
   <g id="text_26">
    <g id="patch_27">
     <path clip-path="url(#p23f8ad243b)" d="M 429.027154 231.557394 
L 433.051937 228.441432 
Q 434.000806 227.706824 433.266198 226.757956 
L 430.896323 223.696867 
Q 430.161715 222.747998 429.212846 223.482606 
L 425.188063 226.598568 
Q 424.239194 227.333176 424.973802 228.282044 
L 427.343677 231.343133 
Q 428.078285 232.292002 429.027154 231.557394 
z
" style="fill:#ffffff;stroke:#ffffff;stroke-linejoin:miter;"/>
    </g>
    <g clip-path="url(#p23f8ad243b)">
     <!-- 12 -->
     <g transform="translate(427.783294326 229.950742068)rotate(-37.7468053865)scale(0.04 -0.04)">
      <use xlink:href="#BitstreamVeraSans-Roman-31"/>
      <use x="63.623046875" xlink:href="#BitstreamVeraSans-Roman-32"/>
     </g>
    </g>
   </g>
   <g id="text_27">
    <g id="patch_28">
     <path clip-path="url(#p23f8ad243b)" d="M 283.212319 107.937136 
L 288.059199 106.382831 
Q 289.201881 106.016394 288.835444 104.873712 
L 287.653303 101.18737 
Q 287.286865 100.044687 286.144183 100.411124 
L 281.297304 101.965428 
Q 280.154621 102.331865 280.521058 103.474548 
L 281.7032 107.16089 
Q 282.069637 108.303573 283.212319 107.937136 
z
" style="fill:#ffffff;stroke:#ffffff;stroke-linejoin:miter;"/>
    </g>
    <g clip-path="url(#p23f8ad243b)">
     <!-- 82 -->
     <g transform="translate(282.59185735 106.002312093)rotate(-17.7800829913)scale(0.04 -0.04)">
      <use xlink:href="#BitstreamVeraSans-Roman-38"/>
      <use x="63.623046875" xlink:href="#BitstreamVeraSans-Roman-32"/>
     </g>
    </g>
   </g>
   <g id="text_28">
    <g id="patch_29">
     <path clip-path="url(#p23f8ad243b)" d="M 376.828991 137.676924 
L 381.918991 137.676924 
Q 383.118991 137.676924 383.118991 136.476924 
L 383.118991 132.605674 
Q 383.118991 131.405674 381.918991 131.405674 
L 376.828991 131.405674 
Q 375.628991 131.405674 375.628991 132.605674 
L 375.628991 136.476924 
Q 375.628991 137.676924 376.828991 137.676924 
z
" style="fill:#ffffff;stroke:#ffffff;stroke-linejoin:miter;"/>
    </g>
    <g clip-path="url(#p23f8ad243b)">
     <!-- 78 -->
     <g transform="translate(376.828991232 135.645048807)scale(0.04 -0.04)">
      <use xlink:href="#BitstreamVeraSans-Roman-37"/>
      <use x="63.623046875" xlink:href="#BitstreamVeraSans-Roman-38"/>
     </g>
    </g>
   </g>
   <g id="text_29">
    <g id="patch_30">
     <path clip-path="url(#p23f8ad243b)" d="M 196.538874 153.44239 
L 198.94008 157.930408 
Q 199.50618 158.988487 200.564259 158.422388 
L 203.977666 156.596127 
Q 205.035745 156.030027 204.469645 154.971948 
L 202.068439 150.48393 
Q 201.50234 149.425851 200.444261 149.99195 
L 197.030854 151.818211 
Q 195.972775 152.384311 196.538874 153.44239 
z
" style="fill:#ffffff;stroke:#ffffff;stroke-linejoin:miter;"/>
    </g>
    <g clip-path="url(#p23f8ad243b)">
     <!-- 19 -->
     <g transform="translate(198.330444638 152.483853394)rotate(-298.147932769)scale(0.04 -0.04)">
      <use xlink:href="#BitstreamVeraSans-Roman-31"/>
      <use x="63.623046875" xlink:href="#BitstreamVeraSans-Roman-39"/>
     </g>
    </g>
   </g>
   <g id="text_30">
    <g id="patch_31">
     <path clip-path="url(#p23f8ad243b)" d="M 425.188063 205.401432 
L 429.212846 208.517394 
Q 430.161715 209.252002 430.896323 208.303133 
L 433.266198 205.242044 
Q 434.000806 204.293176 433.051937 203.558568 
L 429.027154 200.442606 
Q 428.078285 199.707998 427.343677 200.656867 
L 424.973802 203.717956 
Q 424.239194 204.666824 425.188063 205.401432 
z
" style="fill:#ffffff;stroke:#ffffff;stroke-linejoin:miter;"/>
    </g>
    <g clip-path="url(#p23f8ad243b)">
     <!-- 27 -->
     <g transform="translate(426.431922002 203.794780516)rotate(-322.253194613)scale(0.04 -0.04)">
      <use xlink:href="#BitstreamVeraSans-Roman-32"/>
      <use x="63.623046875" xlink:href="#BitstreamVeraSans-Roman-37"/>
     </g>
    </g>
   </g>
   <g id="text_31">
    <g id="patch_32">
     <path clip-path="url(#p23f8ad243b)" d="M 207.094071 151.754471 
L 211.118855 154.870433 
Q 212.067723 155.605041 212.802331 154.656172 
L 215.172207 151.595083 
Q 215.906815 150.646215 214.957946 149.911607 
L 210.933162 146.795645 
Q 209.984294 146.061037 209.249686 147.009906 
L 206.879811 150.070995 
Q 206.145203 151.019863 207.094071 151.754471 
z
" style="fill:#ffffff;stroke:#ffffff;stroke-linejoin:miter;"/>
    </g>
    <g clip-path="url(#p23f8ad243b)">
     <!-- 47 -->
     <g transform="translate(208.33793077 150.147819562)rotate(-322.253194613)scale(0.04 -0.04)">
      <use xlink:href="#BitstreamVeraSans-Roman-34"/>
      <use x="63.623046875" xlink:href="#BitstreamVeraSans-Roman-37"/>
     </g>
    </g>
   </g>
   <g id="text_32">
    <g id="patch_33">
     <path clip-path="url(#p23f8ad243b)" d="M 146.792866 223.381091 
L 149.194072 227.869109 
Q 149.760171 228.927189 150.81825 228.361089 
L 154.231657 226.534828 
Q 155.289736 225.968728 154.723637 224.910649 
L 152.322431 220.422631 
Q 151.756331 219.364552 150.698252 219.930651 
L 147.284845 221.756912 
Q 146.226766 222.323012 146.792866 223.381091 
z
" style="fill:#ffffff;stroke:#ffffff;stroke-linejoin:miter;"/>
    </g>
    <g clip-path="url(#p23f8ad243b)">
     <!-- 42 -->
     <g transform="translate(148.58443587 222.422554586)rotate(-298.14793277)scale(0.04 -0.04)">
      <use xlink:href="#BitstreamVeraSans-Roman-34"/>
      <use x="63.623046875" xlink:href="#BitstreamVeraSans-Roman-32"/>
     </g>
    </g>
   </g>
   <g id="text_33">
    <g id="patch_34">
     <path clip-path="url(#p23f8ad243b)" d="M 403.553114 153.378039 
L 403.553114 148.288039 
Q 403.553114 147.088039 402.353114 147.088039 
L 398.481864 147.088039 
Q 397.281864 147.088039 397.281864 148.288039 
L 397.281864 153.378039 
Q 397.281864 154.578039 398.481864 154.578039 
L 402.353114 154.578039 
Q 403.553114 154.578039 403.553114 153.378039 
z
" style="fill:#ffffff;stroke:#ffffff;stroke-linejoin:miter;"/>
    </g>
    <g clip-path="url(#p23f8ad243b)">
     <!-- 32 -->
     <g transform="translate(401.521239041 153.378039046)rotate(-90.0)scale(0.04 -0.04)">
      <use xlink:href="#BitstreamVeraSans-Roman-33"/>
      <use x="63.623046875" xlink:href="#BitstreamVeraSans-Roman-32"/>
     </g>
    </g>
   </g>
   <g id="text_34">
    <g id="patch_35">
     <path clip-path="url(#p23f8ad243b)" d="M 417.132319 227.908876 
L 421.979199 226.354572 
Q 423.121881 225.988135 422.755444 224.845452 
L 421.573303 221.15911 
Q 421.206865 220.016427 420.064183 220.382864 
L 415.217304 221.937169 
Q 414.074621 222.303606 414.441058 223.446288 
L 415.6232 227.13263 
Q 415.989637 228.275313 417.132319 227.908876 
z
" style="fill:#ffffff;stroke:#ffffff;stroke-linejoin:miter;"/>
    </g>
    <g clip-path="url(#p23f8ad243b)">
     <!-- 65 -->
     <g transform="translate(416.51185735 225.974052331)rotate(-17.7800829933)scale(0.04 -0.04)">
      <use xlink:href="#BitstreamVeraSans-Roman-36"/>
      <use x="63.623046875" xlink:href="#BitstreamVeraSans-Roman-35"/>
     </g>
    </g>
   </g>
   <g id="text_35">
    <g id="patch_36">
     <path clip-path="url(#p23f8ad243b)" d="M 298.335625 126.385 
L 298.335625 121.295 
Q 298.335625 120.095 297.135625 120.095 
L 293.264375 120.095 
Q 292.064375 120.095 292.064375 121.295 
L 292.064375 126.385 
Q 292.064375 127.585 293.264375 127.585 
L 297.135625 127.585 
Q 298.335625 127.585 298.335625 126.385 
z
" style="fill:#ffffff;stroke:#ffffff;stroke-linejoin:miter;"/>
    </g>
    <g clip-path="url(#p23f8ad243b)">
     <!-- 80 -->
     <g transform="translate(296.30375 126.385)rotate(-90.0)scale(0.04 -0.04)">
      <use xlink:href="#BitstreamVeraSans-Roman-38"/>
      <use x="63.623046875" xlink:href="#BitstreamVeraSans-Roman-30"/>
     </g>
    </g>
   </g>
   <g id="text_36">
    <g id="patch_37">
     <path clip-path="url(#p23f8ad243b)" d="M 373.549808 146.450175 
L 378.396688 144.895871 
Q 379.53937 144.529433 379.172933 143.386751 
L 377.990792 139.700409 
Q 377.624354 138.557726 376.481672 138.924163 
L 371.634793 140.478467 
Q 370.49211 140.844905 370.858547 141.987587 
L 372.040689 145.673929 
Q 372.407126 146.816612 373.549808 146.450175 
z
" style="fill:#ffffff;stroke:#ffffff;stroke-linejoin:miter;"/>
    </g>
    <g clip-path="url(#p23f8ad243b)">
     <!-- 32 -->
     <g transform="translate(372.929346391 144.515351139)rotate(-17.7800829933)scale(0.04 -0.04)">
      <use xlink:href="#BitstreamVeraSans-Roman-33"/>
      <use x="63.623046875" xlink:href="#BitstreamVeraSans-Roman-32"/>
     </g>
    </g>
   </g>
   <g id="text_37">
    <g id="patch_38">
     <path clip-path="url(#p23f8ad243b)" d="M 168.420801 226.354572 
L 173.267681 227.908876 
Q 174.410363 228.275313 174.7768 227.13263 
L 175.958942 223.446288 
Q 176.325379 222.303606 175.182696 221.937169 
L 170.335817 220.382864 
Q 169.193135 220.016427 168.826697 221.15911 
L 167.644556 224.845452 
Q 167.278119 225.988135 168.420801 226.354572 
z
" style="fill:#ffffff;stroke:#ffffff;stroke-linejoin:miter;"/>
    </g>
    <g clip-path="url(#p23f8ad243b)">
     <!-- 41 -->
     <g transform="translate(169.041263445 224.419747995)rotate(-342.219917006)scale(0.04 -0.04)">
      <use xlink:href="#BitstreamVeraSans-Roman-34"/>
      <use x="63.623046875" xlink:href="#BitstreamVeraSans-Roman-31"/>
     </g>
    </g>
   </g>
   <g id="text_38">
    <g id="patch_39">
     <path clip-path="url(#p23f8ad243b)" d="M 435.676363 207.089351 
L 438.077569 211.577369 
Q 438.643669 212.635448 439.701748 212.069349 
L 443.115155 210.243088 
Q 444.173234 209.676988 443.607134 208.618909 
L 441.205928 204.130891 
Q 440.639829 203.072811 439.58175 203.638911 
L 436.168343 205.465172 
Q 435.110264 206.031272 435.676363 207.089351 
z
" style="fill:#ffffff;stroke:#ffffff;stroke-linejoin:miter;"/>
    </g>
    <g clip-path="url(#p23f8ad243b)">
     <!-- 16 -->
     <g transform="translate(437.467933678 206.130814348)rotate(-298.147932771)scale(0.04 -0.04)">
      <use xlink:href="#BitstreamVeraSans-Roman-31"/>
      <use x="63.623046875" xlink:href="#BitstreamVeraSans-Roman-36"/>
     </g>
    </g>
   </g>
   <g id="text_39">
    <g id="patch_40">
     <path clip-path="url(#p23f8ad243b)" d="M 197.123312 303.041533 
L 201.970192 304.595837 
Q 203.112874 304.962274 203.479311 303.819591 
L 204.661453 300.133249 
Q 205.02789 298.990567 203.885207 298.624129 
L 199.038328 297.069825 
Q 197.895646 296.703388 197.529208 297.846071 
L 196.347067 301.532413 
Q 195.98063 302.675095 197.123312 303.041533 
z
" style="fill:#ffffff;stroke:#ffffff;stroke-linejoin:miter;"/>
    </g>
    <g clip-path="url(#p23f8ad243b)">
     <!-- 76 -->
     <g transform="translate(197.743774404 301.106708949)rotate(-342.219917006)scale(0.04 -0.04)">
      <use xlink:href="#BitstreamVeraSans-Roman-37"/>
      <use x="63.623046875" xlink:href="#BitstreamVeraSans-Roman-36"/>
     </g>
    </g>
   </g>
   <g id="text_40">
    <g id="patch_41">
     <path clip-path="url(#p23f8ad243b)" d="M 411.695 219.135625 
L 416.785 219.135625 
Q 417.985 219.135625 417.985 217.935625 
L 417.985 214.064375 
Q 417.985 212.864375 416.785 212.864375 
L 411.695 212.864375 
Q 410.495 212.864375 410.495 214.064375 
L 410.495 217.935625 
Q 410.495 219.135625 411.695 219.135625 
z
" style="fill:#ffffff;stroke:#ffffff;stroke-linejoin:miter;"/>
    </g>
    <g clip-path="url(#p23f8ad243b)">
     <!-- 34 -->
     <g transform="translate(411.695 217.10375)scale(0.04 -0.04)">
      <use xlink:href="#BitstreamVeraSans-Roman-33"/>
      <use x="63.623046875" xlink:href="#BitstreamVeraSans-Roman-34"/>
     </g>
    </g>
   </g>
   <g id="text_41">
    <g id="patch_42">
     <path clip-path="url(#p23f8ad243b)" d="M 286.242431 124.189109 
L 288.643637 119.701091 
Q 289.209736 118.643012 288.151657 118.076912 
L 284.73825 116.250651 
Q 283.680171 115.684552 283.114072 116.742631 
L 280.712866 121.230649 
Q 280.146766 122.288728 281.204845 122.854828 
L 284.618252 124.681089 
Q 285.676331 125.247189 286.242431 124.189109 
z
" style="fill:#ffffff;stroke:#ffffff;stroke-linejoin:miter;"/>
    </g>
    <g clip-path="url(#p23f8ad243b)">
     <!-- 35 -->
     <g transform="translate(284.450860399 123.230573093)rotate(-61.8520672301)scale(0.04 -0.04)">
      <use xlink:href="#BitstreamVeraSans-Roman-33"/>
      <use x="63.623046875" xlink:href="#BitstreamVeraSans-Roman-35"/>
     </g>
    </g>
   </g>
   <g id="text_42">
    <g id="patch_43">
     <path clip-path="url(#p23f8ad243b)" d="M 379.281145 154.870433 
L 383.305929 151.754471 
Q 384.254797 151.019863 383.520189 150.070995 
L 381.150314 147.009906 
Q 380.415706 146.061037 379.466837 146.795645 
L 375.442054 149.911607 
Q 374.493185 150.646215 375.227793 151.595083 
L 377.597669 154.656172 
Q 378.332277 155.605041 379.281145 154.870433 
z
" style="fill:#ffffff;stroke:#ffffff;stroke-linejoin:miter;"/>
    </g>
    <g clip-path="url(#p23f8ad243b)">
     <!-- 16 -->
     <g transform="translate(378.037285558 153.263781114)rotate(-37.7468053887)scale(0.04 -0.04)">
      <use xlink:href="#BitstreamVeraSans-Roman-31"/>
      <use x="63.623046875" xlink:href="#BitstreamVeraSans-Roman-36"/>
     </g>
    </g>
   </g>
   <g id="text_43">
    <g id="patch_44">
     <path clip-path="url(#p23f8ad243b)" d="M 187.188439 146.410408 
L 189.589645 141.92239 
Q 190.155745 140.864311 189.097666 140.298211 
L 185.684259 138.47195 
Q 184.62618 137.905851 184.06008 138.96393 
L 181.658874 143.451948 
Q 181.092775 144.510027 182.150854 145.076127 
L 185.564261 146.902388 
Q 186.62234 147.468487 187.188439 146.410408 
z
" style="fill:#ffffff;stroke:#ffffff;stroke-linejoin:miter;"/>
    </g>
    <g clip-path="url(#p23f8ad243b)">
     <!-- 34 -->
     <g transform="translate(185.396869167 145.4518719)rotate(-61.8520672301)scale(0.04 -0.04)">
      <use xlink:href="#BitstreamVeraSans-Roman-33"/>
      <use x="63.623046875" xlink:href="#BitstreamVeraSans-Roman-34"/>
     </g>
    </g>
   </g>
   <g id="text_44">
    <g id="patch_45">
     <path clip-path="url(#p23f8ad243b)" d="M 415.217304 210.062831 
L 420.064183 211.617136 
Q 421.206865 211.983573 421.573303 210.84089 
L 422.755444 207.154548 
Q 423.121881 206.011865 421.979199 205.645428 
L 417.132319 204.091124 
Q 415.989637 203.724687 415.6232 204.86737 
L 414.441058 208.553712 
Q 414.074621 209.696394 415.217304 210.062831 
z
" style="fill:#ffffff;stroke:#ffffff;stroke-linejoin:miter;"/>
    </g>
    <g clip-path="url(#p23f8ad243b)">
     <!-- 89 -->
     <g transform="translate(415.837765636 208.128007756)rotate(-342.219917007)scale(0.04 -0.04)">
      <use xlink:href="#BitstreamVeraSans-Roman-38"/>
      <use x="63.623046875" xlink:href="#BitstreamVeraSans-Roman-39"/>
     </g>
    </g>
   </g>
   <g id="text_45">
    <g id="patch_46">
     <path clip-path="url(#p23f8ad243b)" d="M 386.514793 133.375871 
L 391.361672 134.930175 
Q 392.504354 135.296612 392.870792 134.153929 
L 394.052933 130.467587 
Q 394.41937 129.324905 393.276688 128.958467 
L 388.429808 127.404163 
Q 387.287126 127.037726 386.920689 128.180409 
L 385.738547 131.866751 
Q 385.37211 133.009433 386.514793 133.375871 
z
" style="fill:#ffffff;stroke:#ffffff;stroke-linejoin:miter;"/>
    </g>
    <g clip-path="url(#p23f8ad243b)">
     <!-- 56 -->
     <g transform="translate(387.135254677 131.441046802)rotate(-342.219917004)scale(0.04 -0.04)">
      <use xlink:href="#BitstreamVeraSans-Roman-35"/>
      <use x="63.623046875" xlink:href="#BitstreamVeraSans-Roman-36"/>
     </g>
    </g>
   </g>
   <g id="text_46">
    <g id="patch_47">
     <path clip-path="url(#p23f8ad243b)" d="M 208.481009 300.594326 
L 213.571009 300.594326 
Q 214.771009 300.594326 214.771009 299.394326 
L 214.771009 295.523076 
Q 214.771009 294.323076 213.571009 294.323076 
L 208.481009 294.323076 
Q 207.281009 294.323076 207.281009 295.523076 
L 207.281009 299.394326 
Q 207.281009 300.594326 208.481009 300.594326 
z
" style="fill:#ffffff;stroke:#ffffff;stroke-linejoin:miter;"/>
    </g>
    <g clip-path="url(#p23f8ad243b)">
     <!-- 82 -->
     <g transform="translate(208.481008768 298.562451193)scale(0.04 -0.04)">
      <use xlink:href="#BitstreamVeraSans-Roman-38"/>
      <use x="63.623046875" xlink:href="#BitstreamVeraSans-Roman-32"/>
     </g>
    </g>
   </g>
   <g id="text_47">
    <g id="patch_48">
     <path clip-path="url(#p23f8ad243b)" d="M 280.227154 116.357394 
L 284.251937 113.241432 
Q 285.200806 112.506824 284.466198 111.557956 
L 282.096323 108.496867 
Q 281.361715 107.547998 280.412846 108.282606 
L 276.388063 111.398568 
Q 275.439194 112.133176 276.173802 113.082044 
L 278.543677 116.143133 
Q 279.278285 117.092002 280.227154 116.357394 
z
" style="fill:#ffffff;stroke:#ffffff;stroke-linejoin:miter;"/>
    </g>
    <g clip-path="url(#p23f8ad243b)">
     <!-- 57 -->
     <g transform="translate(278.983294326 114.750742068)rotate(-37.746805387)scale(0.04 -0.04)">
      <use xlink:href="#BitstreamVeraSans-Roman-35"/>
      <use x="63.623046875" xlink:href="#BitstreamVeraSans-Roman-37"/>
     </g>
    </g>
   </g>
   <g id="text_48">
    <g id="patch_49">
     <path clip-path="url(#p23f8ad243b)" d="M 391.45992 157.930408 
L 393.861126 153.44239 
Q 394.427225 152.384311 393.369146 151.818211 
L 389.955739 149.99195 
Q 388.89766 149.425851 388.331561 150.48393 
L 385.930355 154.971948 
Q 385.364255 156.030027 386.422334 156.596127 
L 389.835741 158.422388 
Q 390.89382 158.988487 391.45992 157.930408 
z
" style="fill:#ffffff;stroke:#ffffff;stroke-linejoin:miter;"/>
    </g>
    <g clip-path="url(#p23f8ad243b)">
     <!-- 64 -->
     <g transform="translate(389.66834944 156.9718719)rotate(-61.8520672322)scale(0.04 -0.04)">
      <use xlink:href="#BitstreamVeraSans-Roman-36"/>
      <use x="63.623046875" xlink:href="#BitstreamVeraSans-Roman-34"/>
     </g>
    </g>
   </g>
   <g id="text_49">
    <g id="patch_50">
     <path clip-path="url(#p23f8ad243b)" d="M 193.118136 153.378039 
L 193.118136 148.288039 
Q 193.118136 147.088039 191.918136 147.088039 
L 188.046886 147.088039 
Q 186.846886 147.088039 186.846886 148.288039 
L 186.846886 153.378039 
Q 186.846886 154.578039 188.046886 154.578039 
L 191.918136 154.578039 
Q 193.118136 154.578039 193.118136 153.378039 
z
" style="fill:#ffffff;stroke:#ffffff;stroke-linejoin:miter;"/>
    </g>
    <g clip-path="url(#p23f8ad243b)">
     <!-- 51 -->
     <g transform="translate(191.086260959 153.378039046)rotate(-90.0)scale(0.04 -0.04)">
      <use xlink:href="#BitstreamVeraSans-Roman-35"/>
      <use x="63.623046875" xlink:href="#BitstreamVeraSans-Roman-31"/>
     </g>
    </g>
   </g>
   <g id="text_50">
    <g id="patch_51">
     <path clip-path="url(#p23f8ad243b)" d="M 304.255817 331.588876 
L 309.102696 330.034572 
Q 310.245379 329.668135 309.878942 328.525452 
L 308.6968 324.83911 
Q 308.330363 323.696427 307.187681 324.062864 
L 302.340801 325.617169 
Q 301.198119 325.983606 301.564556 327.126288 
L 302.746697 330.81263 
Q 303.113135 331.955313 304.255817 331.588876 
z
" style="fill:#ffffff;stroke:#ffffff;stroke-linejoin:miter;"/>
    </g>
    <g clip-path="url(#p23f8ad243b)">
     <!-- 38 -->
     <g transform="translate(303.635355158 329.654052331)rotate(-17.7800829933)scale(0.04 -0.04)">
      <use xlink:href="#BitstreamVeraSans-Roman-33"/>
      <use x="63.623046875" xlink:href="#BitstreamVeraSans-Roman-38"/>
     </g>
    </g>
   </g>
   <g id="text_51">
    <g id="patch_52">
     <path clip-path="url(#p23f8ad243b)" d="M 157.348063 228.441432 
L 161.372846 231.557394 
Q 162.321715 232.292002 163.056323 231.343133 
L 165.426198 228.282044 
Q 166.160806 227.333176 165.211937 226.598568 
L 161.187154 223.482606 
Q 160.238285 222.747998 159.503677 223.696867 
L 157.133802 226.757956 
Q 156.399194 227.706824 157.348063 228.441432 
z
" style="fill:#ffffff;stroke:#ffffff;stroke-linejoin:miter;"/>
    </g>
    <g clip-path="url(#p23f8ad243b)">
     <!-- 59 -->
     <g transform="translate(158.591922002 226.834780516)rotate(-322.253194612)scale(0.04 -0.04)">
      <use xlink:href="#BitstreamVeraSans-Roman-35"/>
      <use x="63.623046875" xlink:href="#BitstreamVeraSans-Roman-39"/>
     </g>
    </g>
   </g>
   <g id="text_52">
    <g id="patch_53">
     <path clip-path="url(#p23f8ad243b)" d="M 301.756363 119.701091 
L 304.157569 124.189109 
Q 304.723669 125.247189 305.781748 124.681089 
L 309.195155 122.854828 
Q 310.253234 122.288728 309.687134 121.230649 
L 307.285928 116.742631 
Q 306.719829 115.684552 305.66175 116.250651 
L 302.248343 118.076912 
Q 301.190264 118.643012 301.756363 119.701091 
z
" style="fill:#ffffff;stroke:#ffffff;stroke-linejoin:miter;"/>
    </g>
    <g clip-path="url(#p23f8ad243b)">
     <!-- 25 -->
     <g transform="translate(303.547933678 118.742554586)rotate(-298.14793277)scale(0.04 -0.04)">
      <use xlink:href="#BitstreamVeraSans-Roman-32"/>
      <use x="63.623046875" xlink:href="#BitstreamVeraSans-Roman-35"/>
     </g>
    </g>
   </g>
   <g id="text_53">
    <g id="patch_54">
     <path clip-path="url(#p23f8ad243b)" d="M 441.205928 227.869109 
L 443.607134 223.381091 
Q 444.173234 222.323012 443.115155 221.756912 
L 439.701748 219.930651 
Q 438.643669 219.364552 438.077569 220.422631 
L 435.676363 224.910649 
Q 435.110264 225.968728 436.168343 226.534828 
L 439.58175 228.361089 
Q 440.639829 228.927189 441.205928 227.869109 
z
" style="fill:#ffffff;stroke:#ffffff;stroke-linejoin:miter;"/>
    </g>
    <g clip-path="url(#p23f8ad243b)">
     <!-- 10 -->
     <g transform="translate(439.414358207 226.910573093)rotate(-61.8520672301)scale(0.04 -0.04)">
      <use xlink:href="#BitstreamVeraSans-Roman-31"/>
      <use x="63.623046875" xlink:href="#BitstreamVeraSans-Roman-30"/>
     </g>
    </g>
   </g>
   <g id="text_54">
    <g id="patch_55">
     <path clip-path="url(#p23f8ad243b)" d="M 429.027154 231.557394 
L 433.051937 228.441432 
Q 434.000806 227.706824 433.266198 226.757956 
L 430.896323 223.696867 
Q 430.161715 222.747998 429.212846 223.482606 
L 425.188063 226.598568 
Q 424.239194 227.333176 424.973802 228.282044 
L 427.343677 231.343133 
Q 428.078285 232.292002 429.027154 231.557394 
z
" style="fill:#ffffff;stroke:#ffffff;stroke-linejoin:miter;"/>
    </g>
    <g clip-path="url(#p23f8ad243b)">
     <!-- 12 -->
     <g transform="translate(427.783294326 229.950742068)rotate(-37.7468053865)scale(0.04 -0.04)">
      <use xlink:href="#BitstreamVeraSans-Roman-31"/>
      <use x="63.623046875" xlink:href="#BitstreamVeraSans-Roman-32"/>
     </g>
    </g>
   </g>
   <g id="text_55">
    <g id="patch_56">
     <path clip-path="url(#p23f8ad243b)" d="M 283.212319 107.937136 
L 288.059199 106.382831 
Q 289.201881 106.016394 288.835444 104.873712 
L 287.653303 101.18737 
Q 287.286865 100.044687 286.144183 100.411124 
L 281.297304 101.965428 
Q 280.154621 102.331865 280.521058 103.474548 
L 281.7032 107.16089 
Q 282.069637 108.303573 283.212319 107.937136 
z
" style="fill:#ffffff;stroke:#ffffff;stroke-linejoin:miter;"/>
    </g>
    <g clip-path="url(#p23f8ad243b)">
     <!-- 82 -->
     <g transform="translate(282.59185735 106.002312093)rotate(-17.7800829913)scale(0.04 -0.04)">
      <use xlink:href="#BitstreamVeraSans-Roman-38"/>
      <use x="63.623046875" xlink:href="#BitstreamVeraSans-Roman-32"/>
     </g>
    </g>
   </g>
   <g id="text_56">
    <g id="patch_57">
     <path clip-path="url(#p23f8ad243b)" d="M 376.828991 137.676924 
L 381.918991 137.676924 
Q 383.118991 137.676924 383.118991 136.476924 
L 383.118991 132.605674 
Q 383.118991 131.405674 381.918991 131.405674 
L 376.828991 131.405674 
Q 375.628991 131.405674 375.628991 132.605674 
L 375.628991 136.476924 
Q 375.628991 137.676924 376.828991 137.676924 
z
" style="fill:#ffffff;stroke:#ffffff;stroke-linejoin:miter;"/>
    </g>
    <g clip-path="url(#p23f8ad243b)">
     <!-- 78 -->
     <g transform="translate(376.828991232 135.645048807)scale(0.04 -0.04)">
      <use xlink:href="#BitstreamVeraSans-Roman-37"/>
      <use x="63.623046875" xlink:href="#BitstreamVeraSans-Roman-38"/>
     </g>
    </g>
   </g>
   <g id="PathCollection_1">
    <defs>
     <path d="M 0 4.472136 
C 1.186024 4.472136 2.323632 4.000923 3.162278 3.162278 
C 4.000923 2.323632 4.472136 1.186024 4.472136 0 
C 4.472136 -1.186024 4.000923 -2.323632 3.162278 -3.162278 
C 2.323632 -4.000923 1.186024 -4.472136 0 -4.472136 
C -1.186024 -4.472136 -2.323632 -4.000923 -3.162278 -3.162278 
C -4.000923 -2.323632 -4.472136 -1.186024 -4.472136 0 
C -4.472136 1.186024 -4.000923 2.323632 -3.162278 3.162278 
C -2.323632 4.000923 -1.186024 4.472136 0 4.472136 
z
" id="m8c9c248ffc" style="stroke:#000000;"/>
    </defs>
    <g clip-path="url(#p23f8ad243b)">
     <use style="stroke:#000000;" x="444.0" xlink:href="#m8c9c248ffc" y="216.0"/>
     <use style="stroke:#000000;" x="400.417489041" xlink:href="#m8c9c248ffc" y="134.541298807"/>
     <use style="stroke:#000000;" x="295.2" xlink:href="#m8c9c248ffc" y="100.8"/>
     <use style="stroke:#000000;" x="189.982510959" xlink:href="#m8c9c248ffc" y="134.541298807"/>
     <use style="stroke:#000000;" x="146.4" xlink:href="#m8c9c248ffc" y="216.0"/>
     <use style="stroke:#000000;" x="189.982510959" xlink:href="#m8c9c248ffc" y="297.458701193"/>
     <use style="stroke:#000000;" x="295.2" xlink:href="#m8c9c248ffc" y="331.2"/>
     <use style="stroke:#000000;" x="400.417489041" xlink:href="#m8c9c248ffc" y="297.458701193"/>
    </g>
   </g>
   <g id="PathCollection_2">
    <g clip-path="url(#p23f8ad243b)">
     <use style="stroke:#000000;" x="444.0" xlink:href="#m8c9c248ffc" y="216.0"/>
     <use style="stroke:#000000;" x="400.417489041" xlink:href="#m8c9c248ffc" y="134.541298807"/>
     <use style="stroke:#000000;" x="295.2" xlink:href="#m8c9c248ffc" y="100.8"/>
     <use style="stroke:#000000;" x="189.982510959" xlink:href="#m8c9c248ffc" y="134.541298807"/>
     <use style="stroke:#000000;" x="146.4" xlink:href="#m8c9c248ffc" y="216.0"/>
     <use style="stroke:#000000;" x="189.982510959" xlink:href="#m8c9c248ffc" y="297.458701193"/>
     <use style="stroke:#000000;" x="295.2" xlink:href="#m8c9c248ffc" y="331.2"/>
     <use style="stroke:#000000;" x="400.417489041" xlink:href="#m8c9c248ffc" y="297.458701193"/>
    </g>
   </g>
   <g id="text_57">
    <g clip-path="url(#p23f8ad243b)">
     <!-- 1 -->
     <g style="fill:#ffffff;" transform="translate(442.409375 217.3796875)scale(0.05 -0.05)">
      <use xlink:href="#BitstreamVeraSans-Roman-31"/>
     </g>
    </g>
   </g>
   <g id="text_58">
    <g clip-path="url(#p23f8ad243b)">
     <!-- 2 -->
     <g style="fill:#ffffff;" transform="translate(398.826864041 135.920986307)scale(0.05 -0.05)">
      <use xlink:href="#BitstreamVeraSans-Roman-32"/>
     </g>
    </g>
   </g>
   <g id="text_59">
    <g clip-path="url(#p23f8ad243b)">
     <!-- 3 -->
     <g style="fill:#ffffff;" transform="translate(293.609375 102.1796875)scale(0.05 -0.05)">
      <use xlink:href="#BitstreamVeraSans-Roman-33"/>
     </g>
    </g>
   </g>
   <g id="text_60">
    <g clip-path="url(#p23f8ad243b)">
     <!-- 4 -->
     <g style="fill:#ffffff;" transform="translate(188.391885959 135.920986307)scale(0.05 -0.05)">
      <use xlink:href="#BitstreamVeraSans-Roman-34"/>
     </g>
    </g>
   </g>
   <g id="text_61">
    <g clip-path="url(#p23f8ad243b)">
     <!-- 5 -->
     <g style="fill:#ffffff;" transform="translate(144.809375 217.3796875)scale(0.05 -0.05)">
      <use xlink:href="#BitstreamVeraSans-Roman-35"/>
     </g>
    </g>
   </g>
   <g id="text_62">
    <g clip-path="url(#p23f8ad243b)">
     <!-- 6 -->
     <g style="fill:#ffffff;" transform="translate(188.391885959 298.838388693)scale(0.05 -0.05)">
      <use xlink:href="#BitstreamVeraSans-Roman-36"/>
     </g>
    </g>
   </g>
   <g id="text_63">
    <g clip-path="url(#p23f8ad243b)">
     <!-- 7 -->
     <g style="fill:#ffffff;" transform="translate(293.609375 332.5796875)scale(0.05 -0.05)">
      <use xlink:href="#BitstreamVeraSans-Roman-37"/>
     </g>
    </g>
   </g>
   <g id="text_64">
    <g clip-path="url(#p23f8ad243b)">
     <!-- 8 -->
     <g style="fill:#ffffff;" transform="translate(398.826864041 298.838388693)scale(0.05 -0.05)">
      <use xlink:href="#BitstreamVeraSans-Roman-38"/>
     </g>
    </g>
   </g>
   <g id="text_65">
    <g clip-path="url(#p23f8ad243b)">
     <!-- 1 -->
     <g style="fill:#ffffff;" transform="translate(442.409375 217.3796875)scale(0.05 -0.05)">
      <use xlink:href="#BitstreamVeraSans-Roman-31"/>
     </g>
    </g>
   </g>
   <g id="text_66">
    <g clip-path="url(#p23f8ad243b)">
     <!-- 2 -->
     <g style="fill:#ffffff;" transform="translate(398.826864041 135.920986307)scale(0.05 -0.05)">
      <use xlink:href="#BitstreamVeraSans-Roman-32"/>
     </g>
    </g>
   </g>
   <g id="text_67">
    <g clip-path="url(#p23f8ad243b)">
     <!-- 3 -->
     <g style="fill:#ffffff;" transform="translate(293.609375 102.1796875)scale(0.05 -0.05)">
      <use xlink:href="#BitstreamVeraSans-Roman-33"/>
     </g>
    </g>
   </g>
   <g id="text_68">
    <g clip-path="url(#p23f8ad243b)">
     <!-- 4 -->
     <g style="fill:#ffffff;" transform="translate(188.391885959 135.920986307)scale(0.05 -0.05)">
      <use xlink:href="#BitstreamVeraSans-Roman-34"/>
     </g>
    </g>
   </g>
   <g id="text_69">
    <g clip-path="url(#p23f8ad243b)">
     <!-- 5 -->
     <g style="fill:#ffffff;" transform="translate(144.809375 217.3796875)scale(0.05 -0.05)">
      <use xlink:href="#BitstreamVeraSans-Roman-35"/>
     </g>
    </g>
   </g>
   <g id="text_70">
    <g clip-path="url(#p23f8ad243b)">
     <!-- 6 -->
     <g style="fill:#ffffff;" transform="translate(188.391885959 298.838388693)scale(0.05 -0.05)">
      <use xlink:href="#BitstreamVeraSans-Roman-36"/>
     </g>
    </g>
   </g>
   <g id="text_71">
    <g clip-path="url(#p23f8ad243b)">
     <!-- 7 -->
     <g style="fill:#ffffff;" transform="translate(293.609375 332.5796875)scale(0.05 -0.05)">
      <use xlink:href="#BitstreamVeraSans-Roman-37"/>
     </g>
    </g>
   </g>
   <g id="text_72">
    <g clip-path="url(#p23f8ad243b)">
     <!-- 8 -->
     <g style="fill:#ffffff;" transform="translate(398.826864041 298.838388693)scale(0.05 -0.05)">
      <use xlink:href="#BitstreamVeraSans-Roman-38"/>
     </g>
    </g>
   </g>
  </g>
 </g>
 <defs>
  <clipPath id="p23f8ad243b">
   <rect height="345.6" width="446.4" x="72.0" y="43.2"/>
  </clipPath>
 </defs>
</svg>
